<?xml version="1.0" encoding="utf-8"?>
<!-- Generator: Adobe Illustrator 12.0.0, SVG Export Plug-In . SVG Version: 6.00 Build 51448)  -->
<!DOCTYPE svg PUBLIC "-//W3C//DTD SVG 1.1//EN" "http://www.w3.org/Graphics/SVG/1.1/DTD/svg11.dtd" [
	<!ENTITY ns_svg "http://www.w3.org/2000/svg">
	<!ENTITY ns_xlink "http://www.w3.org/1999/xlink">
]>
<svg  version="1.1"
	 id="svg9351" sodipodi:docname="fwc.svg" sodipodi:version="0.32" inkscape:version="0.46" sodipodi:docbase="C:\Documents and Settings\Giuseppe\Desktop\Italia" xmlns:cc="http://creativecommons.org/ns#" xmlns:inkscape="http://www.inkscape.org/namespaces/inkscape" xmlns:dc="http://purl.org/dc/elements/1.1/" inkscape:output_extension="org.inkscape.output.svg.inkscape" xmlns:ns1="http://sozi.baierouge.fr" xmlns:sodipodi="http://sodipodi.sourceforge.net/DTD/sodipodi-0.dtd" xmlns:rdf="http://www.w3.org/1999/02/22-rdf-syntax-ns#"
	 xmlns="&ns_svg;" xmlns:xlink="&ns_xlink;" width="130" height="300" viewBox="0 0 130 300"
	 overflow="visible" enable-background="new 0 0 130 300" xml:space="preserve">
<sodipodi:namedview  height="300px" id="base" inkscape:current-layer="layer1" inkscape:window-width="1024" inkscape:pageopacity="0.0" width="130px" inkscape:window-height="712" inkscape:window-x="138" inkscape:pageshadow="2" inkscape:window-y="20" pagecolor="#ffffff" borderopacity="1.0" showgrid="false" inkscape:cx="55.351463" inkscape:document-units="px" inkscape:zoom="1.979899" inkscape:cy="110.25655" bordercolor="#666666">
	</sodipodi:namedview>
<g id="layer1" inkscape:label="Livello 1" inkscape:groupmode="layer">
	
		<path id="path15863" sodipodi:open="true" sodipodi:end="12.383278" sodipodi:cy="46.785713" sodipodi:rx="55.714287" sodipodi:start="6.1580709" sodipodi:ry="51.785713" sodipodi:cx="306.42856" sodipodi:type="arc" fill="#999999" d="
		M51.962,46.41c0.154,1.122-0.702,2.146-1.912,2.289s-2.315-0.651-2.469-1.773c-0.154-1.122,0.702-2.146,1.912-2.289
		c1.161-0.137,2.235,0.589,2.449,1.656"/>
	<path id="path14878" sodipodi:nodetypes="ccccccccccc" fill="#CCCCCC" d="M49.609,50.973c0,0,0.705,0.352,0.932,0.042
		c0.228-0.311,0.206-0.41-0.022-1.283c-0.477-1.084-1.001-2.219-1.001-2.219s-0.088,0.859-0.599,0.854
		c-0.324,0.005-0.856-0.447-1.052-0.688C47.651,47.261,47.57,46.7,47.57,46.7s-0.083,0.29-0.049,1.047
		c0.021,0.228,0.53,0.946,0.53,0.946l0.979,0.418L49.609,50.973L49.609,50.973z"/>
	<path id="path12916" sodipodi:nodetypes="ccccsccc" fill="#999999" d="M48.74,53.015l0.131-0.962l-0.644-1.404l-0.281-2.104
		c0,0,0.689,1.536,0.835,1.887c0.146,0.351,0.827,1.187,0.827,1.187s-0.113,0.585-0.329,0.961
		C49.126,53.142,48.74,53.015,48.74,53.015z"/>
	<path id="path13899" sodipodi:nodetypes="ccccccccc" fill="#CCCCCC" d="M47.944,48.539c0,0,0.532,1.491,0.979,2.203
		c0.446,0.711,0.596,0.671,0.596,0.671S50,51.007,49.993,50.67c0.004-0.054-0.021-0.361-0.127-0.552
		c-0.117-0.271-0.213-0.398-0.389-0.655c-0.099-0.135-0.307-0.333-0.417-0.409c-0.19-0.139-0.219-0.144-0.483-0.264
		C48.314,48.671,47.944,48.539,47.944,48.539z"/>
	<path id="path10950" sodipodi:nodetypes="cccccccc" fill="#999999" d="M48.637,54.29l0.79-1.492l0.351-1.024l0.17-0.87
		c0,0-0.375-0.314-0.591-0.344c-0.154,0.011,0.126,1.331-0.049,1.952c-0.271,0.6-0.567,0.495-0.567,0.495L48.637,54.29z"/>
	<path id="path8973" sodipodi:nodetypes="ccccccccc" fill="#B1B1B1" d="M50.655,52.257c0,0,0.504-1.294,0.672-1.872
		c0.024-0.236,0.01-0.343,0.031-0.635c0.11-0.512,0.244-0.729,0.31-1.283s0.101-0.934,0.101-0.934s-0.369,0.398-0.763,0.57
		c-0.395,0.172-1.206,0.221-1.206,0.221l0.265,0.955L50.655,52.257z"/>
	<path id="path6034" sodipodi:nodetypes="ccccc" fill="#999999" d="M48.553,54.412l1.933-3.254l0.227,1.035l-0.038,1.491
		L48.553,54.412z"/>
	<path id="path2469" sodipodi:nodetypes="ccccccc" fill="#999999" d="M47.688,56.407c0.041,0.039,0.336,0.056,1.294,0.177
		c0.695,0.049,0.889,0.049,1.631-0.007c0.476-0.057,0.623-0.073,1.321-0.173c-0.161-0.768-1.262-2.729-1.262-2.729l-2.106,0.711
		C48.566,54.387,47.714,55.746,47.688,56.407z"/>
	<path id="path6032" sodipodi:nodetypes="cccccccccc" fill="#CCCCCC" d="M48.568,54.39c0,0,0.792-1.246,1.24-1.948
		c0.375-0.753,0.44-0.882,0.44-0.882l0.051,1.03l-1.467,1.711c0,0,1.772-1.395,1.868-1.589c0.002-0.055,0.044-1.753,0.044-1.753
		l-0.801-0.063c0,0-0.23,0.517-0.575,1.391C49.332,52.554,48.568,54.39,48.568,54.39z"/>
	<path id="path9964" sodipodi:nodetypes="cccscc" fill="#999999" d="M47.704,56.408c0.175-0.058,2.187-2.467,2.187-2.467
		s0.734-0.288,0.784-0.265c0.068,0.113,0.086,0.23-0.026,0.508c-0.16,0.394-1.614,2.086-2.026,2.36
		C48.127,56.518,47.704,56.408,47.704,56.408z"/>
	<path id="path11937" sodipodi:nodetypes="ccscc" fill="#999999" d="M49.331,56.611c0.183-0.148,1.633-2.268,1.619-2.411
		c0.188,0.335,0.443,0.838,0.647,1.293c0.144,0.321,0.231,0.535,0.333,0.907C51.721,56.442,50.604,56.644,49.331,56.611z"/>
	<path id="path8372" sodipodi:nodetypes="ccccccccccccc" fill="#999999" d="M49.117,45.677l-0.078-0.021l-0.017-0.054l0.047-0.034
		l-0.061-0.132l0.045-0.098l0.112-0.003l-0.056,0.092l-0.027,0.038l0.017,0.072l0.03-0.017l0.028,0.076L49.117,45.677z"/>
	<path id="path6028" sodipodi:nodetypes="ccccc" fill="#CCCCCC" d="M48.369,54.732c-0.062,0.005-0.26,0.397-0.244,0.443
		c1.639,0.166,1.854,0.174,3.347,0.035c0.042-0.034-0.219-0.56-0.254-0.482C50.486,54.883,49.555,54.867,48.369,54.732z"/>
	<path id="path6024" sodipodi:nodetypes="ccccc" fill="#CCCCCC" d="M47.85,55.784c-0.059-0.01-0.182,0.472-0.143,0.498
		c1.846,0.179,2.126,0.246,4.188-0.046c0.047-0.023-0.119-0.483-0.177-0.454C50.236,55.952,49.312,55.919,47.85,55.784L47.85,55.784
		z"/>
</g>
</svg>
