<?xml version="1.0" standalone="no"?>
<!DOCTYPE svg PUBLIC "-//W3C//DTD SVG 20010904//EN"
 "http://www.w3.org/TR/2001/REC-SVG-20010904/DTD/svg10.dtd">
<svg version="1.0" xmlns="http://www.w3.org/2000/svg"
 width="400.000000pt" height="400.000000pt" viewBox="0 0 400.000000 400.000000"
 preserveAspectRatio="xMidYMid meet">
<metadata>
Created by potrace 1.11, written by Peter Selinger 2001-2013
</metadata>
<g transform="translate(0.000000,400.000000) scale(0.100000,-0.100000)"
fill="#000000" stroke="none">
<path d="M1282 3535 c-8 -15 -41 -17 -278 -21 -230 -3 -269 -6 -272 -19 -3
-11 6 -15 36 -15 l40 0 6 -47 c9 -80 19 -648 11 -682 -6 -28 -10 -31 -46 -31
-32 0 -39 -3 -39 -20 0 -19 7 -20 155 -20 148 0 155 1 155 20 0 18 -7 20 -58
20 l-59 0 -6 177 c-3 98 -3 181 -1 185 6 9 265 11 288 2 12 -4 16 -20 16 -56
0 -42 3 -49 18 -46 15 3 17 17 17 118 0 101 -2 115 -17 118 -15 3 -18 -4 -18
-42 0 -43 -1 -45 -33 -51 -18 -4 -87 -5 -152 -3 l-120 3 0 175 0 175 155 3
c205 4 200 5 200 -64 0 -47 3 -55 18 -52 15 3 17 15 17 92 0 89 -12 118 -33
81z"/>
<path d="M1722 3435 c-11 -8 -22 -25 -25 -37 -2 -13 -16 -53 -31 -90 -20 -54
-23 -68 -11 -68 20 0 136 151 133 174 -4 26 -41 38 -66 21z"/>
<path d="M1385 3149 c-10 -15 -1 -20 37 -22 l33 -2 6 -180 c3 -102 10 -192 17
-207 29 -69 118 -85 237 -43 94 33 90 33 88 8 -4 -34 16 -42 72 -32 84 15 95
19 95 34 0 10 -9 12 -34 8 -20 -3 -36 -1 -40 6 -4 6 -7 108 -6 226 l0 216 -81
-3 c-52 -2 -84 -7 -86 -15 -3 -7 10 -13 34 -15 l38 -3 3 -192 2 -192 -46 -7
c-63 -9 -144 2 -174 24 l-25 19 -3 192 -2 191 -80 0 c-45 0 -82 -5 -85 -11z"/>
<path d="M1210 2733 c-116 -9 -140 -15 -140 -31 0 -14 8 -17 44 -14 l43 4 7
-215 c4 -118 6 -299 5 -401 -2 -102 0 -188 3 -192 4 -3 22 0 42 7 27 10 43 10
74 1 123 -37 263 22 316 131 20 44 21 161 2 208 -49 117 -177 172 -298 128
l-48 -17 0 193 c0 107 -3 195 -7 197 -5 2 -24 2 -43 1z m210 -415 c55 -28 106
-100 115 -162 8 -52 -14 -140 -46 -180 -52 -66 -168 -88 -216 -40 l-26 26 6
127 c4 69 7 149 7 177 0 43 4 53 23 62 36 17 90 13 137 -10z"/>
<path d="M811 2422 c-66 -93 -71 -109 -39 -114 l23 -3 5 -192 c6 -220 9 -228
83 -228 52 0 157 42 157 62 0 10 -6 13 -17 9 -44 -17 -105 -17 -124 0 -17 15
-19 33 -19 186 l0 168 54 0 c67 0 86 7 86 31 0 17 -8 19 -71 19 l-70 0 2 67
c1 37 -2 68 -7 69 -5 2 -33 -32 -63 -74z"/>
<path d="M1870 2370 c-174 -60 -226 -294 -94 -426 128 -129 351 -67 394 110
36 151 -32 294 -156 325 -58 15 -80 14 -144 -9z m117 -25 c33 -9 81 -69 94
-117 17 -63 7 -184 -19 -235 -31 -60 -65 -83 -123 -83 -44 0 -53 4 -88 39 -48
48 -66 120 -56 220 11 109 43 160 114 181 26 8 36 7 78 -5z"/>
<path d="M778 1832 c-54 -5 -52 -32 2 -32 35 0 40 -3 46 -27 4 -15 8 -190 8
-388 l1 -360 -37 -3 c-25 -2 -38 -8 -38 -18 0 -11 22 -14 120 -14 100 0 120 3
120 15 0 10 -10 15 -33 15 l-34 0 -6 173 c-4 94 -7 279 -7 409 l0 238 -52 -2
c-29 -2 -70 -4 -90 -6z"/>
<path d="M1151 1724 c-26 -33 -27 -56 -3 -77 26 -24 59 -21 87 8 27 26 32 64
13 83 -22 22 -75 14 -97 -14z"/>
<path d="M1077 1463 c-16 -15 -5 -23 32 -23 l39 0 7 -62 c3 -35 5 -128 3 -208
l-3 -145 -42 -3 c-30 -2 -43 -8 -43 -18 0 -12 20 -14 120 -12 71 2 120 7 120
13 1 6 -14 12 -32 15 l-33 5 -3 223 -2 222 -79 0 c-43 0 -81 -3 -84 -7z"/>
<path d="M2275 980 c2 -4 18 -10 35 -14 17 -3 29 -9 27 -13 -3 -5 8 -8 24 -8
16 0 28 -4 28 -9 0 -5 3 -12 8 -15 20 -13 50 -67 45 -80 -3 -9 0 -11 9 -6 11
6 12 5 2 -6 -7 -7 -13 -17 -13 -22 0 -4 6 -5 13 -1 6 4 9 4 5 -1 -4 -4 -3 -16
3 -26 7 -13 6 -19 -1 -19 -7 0 -8 -6 -2 -16 5 -9 8 -24 6 -33 -2 -9 -6 -37 -9
-64 -6 -43 -8 -47 -30 -41 -17 4 -25 1 -30 -15 -3 -11 -19 -31 -34 -44 -21
-17 -26 -28 -20 -39 14 -25 1 -44 -39 -55 l-37 -11 45 5 c122 15 211 110 227
244 16 132 -95 276 -225 292 -23 3 -40 2 -37 -3z"/>
<path d="M848 936 c-57 -20 -83 -41 -101 -78 -35 -75 1 -137 106 -183 116 -52
152 -95 128 -158 -24 -63 -113 -58 -178 9 l-43 44 -16 -25 c-21 -33 -13 -50
35 -74 50 -26 154 -30 197 -8 51 27 76 62 81 114 7 64 -14 89 -119 143 -107
55 -128 74 -128 117 0 90 126 116 160 33 13 -30 33 -37 60 -20 23 14 1 60 -40
81 -40 22 -90 24 -142 5z"/>
<path d="M1380 908 c-36 -18 -69 -34 -74 -36 -5 -3 -7 10 -4 27 l5 32 -81 -3
c-68 -3 -81 -6 -84 -20 -3 -15 4 -18 37 -18 l41 0 -2 -197 -3 -198 -38 -3
c-29 -3 -37 -7 -35 -20 3 -14 18 -17 113 -17 96 0 110 3 113 18 3 13 -3 17
-26 17 -19 0 -32 6 -36 17 -4 9 -6 85 -5 169 1 143 2 153 23 173 28 26 107 42
151 30 47 -13 55 -45 55 -230 l0 -158 -32 -3 c-21 -2 -33 -8 -33 -18 0 -12 19
-15 105 -15 86 0 105 3 105 15 0 9 -11 16 -27 18 l-27 3 -3 177 c-2 114 1 182
8 190 12 14 43 22 95 23 56 2 78 -9 99 -52 18 -35 20 -55 18 -187 l-3 -147
-38 -3 c-30 -3 -37 -7 -35 -20 3 -15 18 -17 116 -17 98 0 112 2 112 17 0 12
-10 18 -32 20 l-33 3 0 170 c0 153 -2 174 -20 205 -43 74 -136 88 -246 38
l-55 -25 -32 28 c-46 41 -105 40 -192 -3z"/>
<path d="M2111 921 c-32 -17 -81 -82 -81 -108 0 -6 9 -14 20 -18 15 -5 30 5
60 37 33 34 40 48 38 74 l-3 32 -34 -17z"/>
<path d="M2296 867 c-52 -22 -50 -16 -31 -107 2 -8 4 -18 4 -22 1 -9 109 -31
120 -24 5 4 15 22 21 41 7 23 16 33 23 28 7 -4 4 5 -6 20 -10 15 -15 33 -11
40 4 7 4 9 -1 5 -5 -5 -22 3 -40 16 l-31 24 -48 -21z"/>
<path d="M2080 645 c-17 -45 -11 -66 26 -101 41 -39 44 -40 89 -18 l33 15 -19
48 c-10 27 -16 51 -13 53 2 3 -13 8 -35 12 -21 3 -46 9 -55 12 -11 4 -19 -2
-26 -21z"/>
</g>
</svg>
